<?xml version="1.0" encoding="UTF-8" standalone="no"?><!DOCTYPE svg PUBLIC "-//W3C//DTD SVG 1.1//EN" "http://www.w3.org/Graphics/SVG/1.1/DTD/svg11.dtd"><svg width="100%" height="100%" viewBox="0 0 1771 947" version="1.1" xmlns="http://www.w3.org/2000/svg" xmlns:xlink="http://www.w3.org/1999/xlink" xml:space="preserve" xmlns:serif="http://www.serif.com/" style="fill-rule:evenodd;clip-rule:evenodd;stroke-linejoin:round;stroke-miterlimit:1.41421;"><g id="Logo-white"><path d="M945.293,11.518l77.753,77.753l-388.764,388.764l0,-157.793l311.011,-308.724Z" style="fill:#fff;fill-rule:nonzero;"/><path d="M629.708,11.518l0,221.824l112.056,-110.912l-112.056,-110.912Z" style="fill:#64d60b;fill-rule:nonzero;"/><path d="M1205.99,0.084l0,171.514l-305.294,305.293l-172.657,0l477.951,-476.807Z" style="fill:#64d60b;fill-rule:nonzero;"/><path d="M1205.99,263.071l0,201.242l-99.478,-99.477l99.478,-101.765Z" style="fill:#fff;fill-rule:nonzero;"/><path d="M134.248,788.789l82.257,-145.033l51.953,0l-110.399,194.82l0,108.234l-47.622,0l0,-108.234l-110.398,-194.82l51.952,0l82.257,145.033Z" style="fill:#fff;fill-rule:nonzero;"/><path d="M350.713,823.424l99.574,0l-49.787,-125.551l-49.787,125.551Zm25.976,-179.667l47.623,0l125.55,303.053l-49.787,0l-32.47,-80.093l-134.21,0l-32.47,80.093l-49.787,0l125.551,-303.053Z" style="fill:#fff;fill-rule:nonzero;"/><path d="M876.723,643.757l41.128,0l0,303.053l-47.623,0l0,-220.796l-110.397,138.538l-110.399,-138.538l0,220.796l-47.622,0l0,-303.053l41.128,0l116.893,147.197l116.892,-147.197Z" style="fill:#fff;fill-rule:nonzero;"/><path d="M1134.31,905.682c28.141,0 49.788,-21.646 49.788,-49.789c0,-28.14 -21.647,-49.786 -49.788,-49.786l-82.257,0l0,99.575l82.257,0Zm-82.257,-220.797l0,82.258l75.763,0c23.812,0 41.129,-17.318 41.129,-41.129c0,-23.812 -17.317,-41.129 -41.129,-41.129l-75.763,0Zm-47.623,261.925l0,-303.053l123.386,0c49.787,0 88.752,38.964 88.752,80.092c0,41.129 -30.306,60.611 -30.306,60.611c0,0 45.459,23.811 45.459,73.598c0,47.624 -41.13,88.752 -97.411,88.752l-129.88,0Z" style="fill:#fff;fill-rule:nonzero;"/><path d="M1300.99,946.81l0,-303.053l47.622,0l0,259.76l147.198,0l0,43.293l-194.82,0Z" style="fill:#fff;fill-rule:nonzero;"/><path d="M1770.71,903.517l0,43.293l-218.631,0l0,-303.053l214.302,0l0,43.293l-166.68,0l0,80.093l132.045,0l0,43.293l-132.045,0l0,93.081l171.009,0Z" style="fill:#fff;fill-rule:nonzero;"/></g></svg>